{"title":"The Day the Earth Stood Still (2008) 1080p BluRay {Dual Audio} {","uid":9702694,"size":2294102073,"categoryP":"video","categoryS":"hd___movies","magnet":"?xt=urn:btih:84d5503ae0aa92436b3ddce0a5fdb7e3c3ded813&amp;dn=The+Day+the+Earth+Stood+Still+%282008%29+1080p+BluRay+%7BDual+Audio%7D+%7B&amp;tr=udp%3A%2F%2Ftracker.openbittorrent.com%3A80&amp;tr=udp%3A%2F%2Fopen.demonii.com%3A1337&amp;tr=udp%3A%2F%2Ftracker.coppersurfer.tk%3A6969&amp;tr=udp%3A%2F%2Fexodus.desync.com%3A6969","seeders":3,"leechers":3,"uploader":"SaNRiM","files":-1,"time":1394028999,"description":"Storyline\n\nDr. Helen Benson is summoned to a military facility with several other scientists when an alien spacecraft of sorts arrives in New York City. Aboard is a human-like alien and a giant robot of immense size and power. The alien identifies himself as Klaatu and says he has come to save the Earth. The US military and political authorities see him as a threat however and decide to use so-called intensive interrogation techniques on him but Dr. Benson decides to facilitate his escape. When she learns exactly what he means when he says he is there to save the Earth, she tries to convince him to change his intentions.\n\n\n\nTorrent Info\n\nGeneral\n\nUnique ID : 172081270983002368749122660982917877910 (0x8175A5B3300F72378A9DBD47FA32D096)\nComplete name : The Day the Earth Stood Still (2008) 1080p BluRay {Dual Audio} {6Ch.} [Hindi DD 5.1-English 5.1]~SaNRiM~.mkv\nFormat : Matroska\nFormat version : Version 4 / Version 2\nFile size : 2.13 GiB\nDuration : 1h 43mn\nOverall bit rate : 2 944 Kbps\nEncoded date : UTC 2014-03-05 11:50:11\nWriting library : libebml v1.3.0 + libmatroska v1.4.1\n\n\nVideo\n\nID : 1\nFormat : AVC\nFormat/Info : Advanced Video Codec\nFormat profile : &lt;a class=&quot;__cf_email__&quot; href=&quot;/cdn-cgi/l/email-protection&quot; data-cfemail=&quot;8ac2e3ede2cac6bea4ba&quot;&gt;[email&amp;#160;protected]&lt;/a&gt;&lt;script cf-hash='f9e31' type=&quot;text/javascript&quot;&gt;\n/* &lt;![CDATA[ */!function(){try{var t=&quot;currentScript&quot;in document?document.currentScript:function(){for(var t=document.getElementsByTagName(&quot;script&quot;),e=t.length;e--;)if(t[e].getAttribute(&quot;cf-hash&quot;))return t[e]}();if(t&amp;&amp;t.previousSibling){var e,r,n,i,c=t.previousSibling,a=c.getAttribute(&quot;data-cfemail&quot;);if(a){for(e=&quot;&quot;,r=parseInt(a.substr(0,2),16),n=2;a.length-n;n+=2)i=parseInt(a.substr(n,2),16)^r,e+=String.fromCharCode(i);e=document.createTextNode(e),c.parentNode.replaceChild(e,c)}}}catch(u){}}();/* ]]&gt; */&lt;/script&gt;\nFormat settings, CABAC : Yes\nFormat settings, ReFrames : 5 frames\nCodec ID : V_MPEG4/ISO/AVC\nDuration : 1h 43mn\nBit rate : 2 048 Kbps\nWidth : 1 920 pixels\nHeight : 816 pixels\nDisplay aspect ratio : 2.35:1\nFrame rate mode : Constant\nFrame rate : 23.976 fps\nColor space : YUV\nChroma subsampling : 4:2:0\nBit depth : 8 bits\nScan type : Progressive\nBits/(Pixel*Frame) : 0.055\nStream size : 1.44 GiB (68%)\nTitle : ~SaNRiM~\nWriting library : x264 core 120 r2164 da19765\nLanguage : English\nDefault : Yes\nForced : No\n\n\nAudio #1\n\nID : 2\nFormat : AC-3\nFormat/Info : Audio Coding 3\nMode extension : CM (complete main)\nFormat settings, Endianness : Big\nCodec ID : A_AC3\nDuration : 1h 43mn\nBit rate mode : Constant\nBit rate : 448 Kbps\nChannel(s) : 6 channels\nChannel positions : Front: L C R, Side: L R, LFE\nSampling rate : 48.0 KHz\nBit depth : 16 bits\nCompression mode : Lossy\nStream size : 332 MiB (15%)\nTitle : ~SaNRiM~\nLanguage : Hindi\nDefault : Yes\nForced : No\n\n\nAudio #2\n\nID : 3\nFormat : AC-3\nFormat/Info : Audio Coding 3\nMode extension : CM (complete main)\nFormat settings, Endianness : Big\nCodec ID : A_AC3\nDuration : 1h 43mn\nBit rate mode : Constant\nBit rate : 448 Kbps\nChannel(s) : 6 channels\nChannel positions : Front: L C R, Side: L R, LFE\nSampling rate : 48.0 KHz\nBit depth : 16 bits\nCompression mode : Lossy\nStream size : 332 MiB (15%)\nTitle : ~SaNRiM~\nLanguage : English\nDefault : No\nForced : No\n\n\n\n\nScreens\n &lt;a href=&quot;\nhttp://someimage.com/fwgMaWO&quot; rel=&quot;nofollow&quot; target=&quot;_NEW&quot;&gt;\nhttp://someimage.com/fwgMaWO&lt;/a&gt; &lt;a href=&quot;\nhttp://someimage.com/rzEYuc0&quot; rel=&quot;nofollow&quot; target=&quot;_NEW&quot;&gt;\nhttp://someimage.com/rzEYuc0&lt;/a&gt; &lt;a href=&quot;\nhttp://someimage.com/5ZpmbeY&quot; rel=&quot;nofollow&quot; target=&quot;_NEW&quot;&gt;\nhttp://someimage.com/5ZpmbeY&lt;/a&gt; &lt;a href=&quot;\nhttp://someimage.com/SR5eun2&quot; rel=&quot;nofollow&quot; target=&quot;_NEW&quot;&gt;\nhttp://someimage.com/SR5eun2&lt;/a&gt; &lt;a href=&quot;\nhttp://someimage.com/XUQiHYH&quot; rel=&quot;nofollow&quot; target=&quot;_NEW&quot;&gt;\nhttp://someimage.com/XUQiHYH&lt;/a&gt; &lt;a href=&quot;\nhttp://someimage.com/gGnUIao&quot; rel=&quot;nofollow&quot; target=&quot;_NEW&quot;&gt;\nhttp://someimage.com/gGnUIao&lt;/a&gt; &lt;a href=&quot;\nhttp://someimage.com/ukk0ei6&quot; rel=&quot;nofollow&quot; target=&quot;_NEW&quot;&gt;\nhttp://someimage.com/ukk0ei6&lt;/a&gt; &lt;a href=&quot;\nhttp://someimage.com/9xCagJS&quot; rel=&quot;nofollow&quot; target=&quot;_NEW&quot;&gt;\nhttp://someimage.com/9xCagJS&lt;/a&gt; &lt;a href=&quot;\nhttp://someimage.com/ysar7xi&quot; rel=&quot;nofollow&quot; target=&quot;_NEW&quot;&gt;\nhttp://someimage.com/ysar7xi&lt;/a&gt; &lt;a href=&quot;\nhttp://someimage.com/cHb9jJH&quot; rel=&quot;nofollow&quot; target=&quot;_NEW&quot;&gt;\nhttp://someimage.com/cHb9jJH&lt;/a&gt; &lt;a href=&quot;\nhttp://someimage.com/6R6D3ho&quot; rel=&quot;nofollow&quot; target=&quot;_NEW&quot;&gt;\nhttp://someimage.com/6R6D3ho&lt;/a&gt; &lt;a href=&quot;\nhttp://someimage.com/t5V6gp4&quot; rel=&quot;nofollow&quot; target=&quot;_NEW&quot;&gt;\nhttp://someimage.com/t5V6gp4&lt;/a&gt; &lt;a href=&quot;\nhttp://someimage.com/ukJm9wO&quot; rel=&quot;nofollow&quot; target=&quot;_NEW&quot;&gt;\nhttp://someimage.com/ukJm9wO&lt;/a&gt; &lt;a href=&quot;\nhttp://someimage.com/7VnCIV3&quot; rel=&quot;nofollow&quot; target=&quot;_NEW&quot;&gt;\nhttp://someimage.com/7VnCIV3&lt;/a&gt; &lt;a href=&quot;\nhttp://someimage.com/qfnpPvl&quot; rel=&quot;nofollow&quot; target=&quot;_NEW&quot;&gt;\nhttp://someimage.com/qfnpPvl&lt;/a&gt; &lt;a href=&quot;\nhttp://someimage.com/PktBzZ8&quot; rel=&quot;nofollow&quot; target=&quot;_NEW&quot;&gt;\nhttp://someimage.com/PktBzZ8&lt;/a&gt; &lt;a href=&quot;\nhttp://someimage.com/CY2yL0c&quot; rel=&quot;nofollow&quot; target=&quot;_NEW&quot;&gt;\nhttp://someimage.com/CY2yL0c&lt;/a&gt; &lt;a href=&quot;\nhttp://someimage.com/jO33y8w&quot; rel=&quot;nofollow&quot; target=&quot;_NEW&quot;&gt;\nhttp://someimage.com/jO33y8w&lt;/a&gt; &lt;a href=&quot;\nhttp://someimage.com/QLaW0M0&quot; rel=&quot;nofollow&quot; target=&quot;_NEW&quot;&gt;\nhttp://someimage.com/QLaW0M0&lt;/a&gt; &lt;a href=&quot;\nhttp://someimage.com/NOXfSyd&quot; rel=&quot;nofollow&quot; target=&quot;_NEW&quot;&gt;\nhttp://someimage.com/NOXfSyd&lt;/a&gt; &lt;a href=&quot;\nhttp://someimage.com/kzSZvJC&quot; rel=&quot;nofollow&quot; target=&quot;_NEW&quot;&gt;\nhttp://someimage.com/kzSZvJC&lt;/a&gt;\n\n\n\n                A BIG THANKS TO PRISAK FOR AUDIO\n\n\n                     If you like my work please comment\n                          Any request? Just PM me\n                       Please seed long after download\n                         Thank you &amp; enjoy the best\n                                 ~SaNRiM~","torrent":{"xt":"urn:btih:84d5503ae0aa92436b3ddce0a5fdb7e3c3ded813","amp;dn":"The+Day+the+Earth+Stood+Still+%282008%29+1080p+BluRay+%7BDual+Audio%7D+%7B","amp;tr":["udp%3A%2F%2Ftracker.openbittorrent.com%3A80","udp%3A%2F%2Fopen.demonii.com%3A1337","udp%3A%2F%2Ftracker.coppersurfer.tk%3A6969","udp%3A%2F%2Fexodus.desync.com%3A6969"],"infoHash":"84d5503ae0aa92436b3ddce0a5fdb7e3c3ded813","infoHashBuffer":{"type":"Buffer","data":[132,213,80,58,224,170,146,67,107,61,220,224,165,253,183,227,195,222,216,19]},"announce":[],"urlList":[]}}